<?xml version="1.0" encoding="UTF-8" standalone="no"?>
<!-- Created with Inkscape (http://www.inkscape.org/) -->

<svg
   xmlns:dc="http://purl.org/dc/elements/1.1/"
   xmlns:cc="http://creativecommons.org/ns#"
   xmlns:rdf="http://www.w3.org/1999/02/22-rdf-syntax-ns#"
   xmlns:svg="http://www.w3.org/2000/svg"
   xmlns="http://www.w3.org/2000/svg"
   xmlns:sodipodi="http://sodipodi.sourceforge.net/DTD/sodipodi-0.dtd"
   xmlns:inkscape="http://www.inkscape.org/namespaces/inkscape"
   width="23.674938mm"
   height="8.6539192mm"
   viewBox="0 0 23.674938 8.6539192"
   version="1.1"
   id="svg180"
   inkscape:version="0.92.3 (2405546, 2018-03-11)"
   sodipodi:docname="moldeo_logo_2020_M@.svg"
   inkscape:export-filename="/home/fabricio/Escritorio/moldeo_logo_2020_M@_512_blanco_bnegro.png"
   inkscape:export-xdpi="549.30664"
   inkscape:export-ydpi="549.30664">
  <defs
     id="defs174" />
  <sodipodi:namedview
     id="base"
     pagecolor="#ffffff"
     bordercolor="#666666"
     borderopacity="1.0"
     inkscape:pageopacity="0.0"
     inkscape:pageshadow="2"
     inkscape:zoom="5.6"
     inkscape:cx="75.446909"
     inkscape:cy="23.744173"
     inkscape:document-units="mm"
     inkscape:current-layer="g1184"
     showgrid="false"
     fit-margin-top="1"
     fit-margin-left="1"
     fit-margin-right="1"
     fit-margin-bottom="1"
     inkscape:window-width="1920"
     inkscape:window-height="975"
     inkscape:window-x="0"
     inkscape:window-y="40"
     inkscape:window-maximized="1" />
  <metadata
     id="metadata177">
    <rdf:RDF>
      <cc:Work
         rdf:about="">
        <dc:format>image/svg+xml</dc:format>
        <dc:type
           rdf:resource="http://purl.org/dc/dcmitype/StillImage" />
        <dc:title></dc:title>
      </cc:Work>
    </rdf:RDF>
  </metadata>
  <g
     inkscape:label="Capa 1"
     inkscape:groupmode="layer"
     id="layer1"
     transform="translate(47.574818,-0.70837177)">
    <g
       id="g1038"
       style="fill:#070707;fill-opacity:1;stroke:#000000;stroke-width:0.05;stroke-miterlimit:4;stroke-dasharray:none;stroke-opacity:1">
      <g
         transform="translate(-153.34848,-104.58311)"
         id="g1184"
         style="display:inline;fill:#070707;fill-opacity:1;stroke:#000000;stroke-width:0.05;stroke-miterlimit:4;stroke-dasharray:none;stroke-opacity:1">
        <path
           inkscape:export-ydpi="365.19934"
           inkscape:export-xdpi="365.19934"
           sodipodi:nodetypes="cssssscscssscccccccsssssscsc"
           inkscape:connector-curvature="0"
           id="path1180"
           d="m 126.53901,110.69493 c -0.76052,0.32267 -0.75468,1.33208 -0.22142,1.88516 0.83436,0.86544 1.90582,-0.0929 2.06411,-0.94894 0.11469,-0.62001 0.0537,-1.42482 -0.96786,-1.75677 -2.39258,-0.77746 -3.1281,2.83174 -4.60736,2.70139 -1.28997,-0.11367 -1.31583,-2.78856 -2.48734,-2.9959 -1.14364,-0.2024 -1.65146,1.7269 -2.16843,1.99648 -0.52744,-0.82706 0.46153,-3.50657 -0.19022,-3.549 -0.97762,-0.0637 -1.87439,2.21999 -4.02609,1.62413 -1.25184,-0.71767 -0.87572,-2.59322 -2.61796,-2.99023 -1.28148,-0.29201 -1.80434,0.75663 -2.71746,0.782 -0.42013,0.0117 -0.67238,-0.43483 -0.91509,-0.62496 -0.23698,-0.18564 -0.52793,-0.4588 -0.88524,-0.50181 0.36782,0.17707 0.6629,0.35978 0.86838,0.6453 0.32531,0.42983 0.49317,0.65062 1.08051,0.64497 1.29696,-0.24619 1.6606,-1.19249 2.84911,-0.58892 0.69807,0.47055 1.49265,3.00139 2.42044,3.02696 1.98169,0.20877 3.29828,-1.26379 3.7433,-1.53603 0.007,0.73768 -0.53664,3.21701 -0.001,3.45886 1.25172,0.17974 1.76888,-2.11619 2.44189,-2.07525 0.69715,0.0424 0.77709,2.96859 2.54663,2.94067 1.53046,-0.0241 2.27715,-3.37082 4.66643,-2.58328 0.80367,0.26492 0.84797,1.08121 0.68292,1.68974 -0.0913,0.33635 -0.84618,1.07141 -1.64508,0.37905 -0.39421,-0.34162 -0.34668,-1.21751 0.22143,-1.322 0.50259,-0.0925 0.81599,0.27061 0.62861,1.18293 0.62317,-1.23748 -0.37311,-1.64984 -0.76271,-1.48462 z"
           style="display:inline;opacity:1;fill:#000000;fill-opacity:1;stroke:#000000;stroke-width:0.05;stroke-linecap:round;stroke-linejoin:round;stroke-miterlimit:4;stroke-dasharray:none;stroke-opacity:1;marker-start:none" />
      </g>
    </g>
  </g>
</svg>
