<?xml version="1.0" encoding="UTF-8" standalone="no"?>
<!-- Created with Inkscape (http://www.inkscape.org/) -->

<svg
   xmlns:dc="http://purl.org/dc/elements/1.1/"
   xmlns:cc="http://creativecommons.org/ns#"
   xmlns:rdf="http://www.w3.org/1999/02/22-rdf-syntax-ns#"
   xmlns:svg="http://www.w3.org/2000/svg"
   xmlns="http://www.w3.org/2000/svg"
   xmlns:sodipodi="http://sodipodi.sourceforge.net/DTD/sodipodi-0.dtd"
   xmlns:inkscape="http://www.inkscape.org/namespaces/inkscape"
   width="48.718708mm"
   height="10.938017mm"
   viewBox="0 0 48.718708 10.938017"
   version="1.1"
   id="svg1751"
   inkscape:export-filename="/home/fabricio/Escritorio/moldeo_spi.png"
   inkscape:export-xdpi="267.05023"
   inkscape:export-ydpi="267.05023"
   inkscape:version="0.92.3 (2405546, 2018-03-11)"
   sodipodi:docname="moldeo_logo.svg">
  <defs
     id="defs1745" />
  <sodipodi:namedview
     id="base"
     pagecolor="#ffffff"
     bordercolor="#666666"
     borderopacity="1.0"
     inkscape:pageopacity="0.0"
     inkscape:pageshadow="2"
     inkscape:zoom="4.4352018"
     inkscape:cx="86.867959"
     inkscape:cy="21.167192"
     inkscape:document-units="mm"
     inkscape:current-layer="layer1"
     showgrid="false"
     fit-margin-top="2"
     fit-margin-left="2"
     fit-margin-right="2"
     fit-margin-bottom="2"
     inkscape:window-width="1920"
     inkscape:window-height="975"
     inkscape:window-x="0"
     inkscape:window-y="40"
     inkscape:window-maximized="1" />
  <metadata
     id="metadata1748">
    <rdf:RDF>
      <cc:Work
         rdf:about="">
        <dc:format>image/svg+xml</dc:format>
        <dc:type
           rdf:resource="http://purl.org/dc/dcmitype/StillImage" />
        <dc:title></dc:title>
      </cc:Work>
    </rdf:RDF>
  </metadata>
  <g
     inkscape:label="Capa 1"
     inkscape:groupmode="layer"
     id="layer1"
     transform="translate(0.16888,-91.959563)">
    <g
       style="display:inline"
       id="g1184"
       transform="translate(-104.96753,-12.356917)">
      <path
         style="display:inline;opacity:1;fill:#ffffff;fill-opacity:1;stroke:none;stroke-width:0.24800001;stroke-linecap:round;stroke-linejoin:round;stroke-miterlimit:4;stroke-dasharray:none;stroke-opacity:1;marker-start:none"
         d="m 126.53901,110.69493 c -0.76052,0.32267 -0.75468,1.33208 -0.22142,1.88516 0.83436,0.86544 1.90582,-0.0929 2.06411,-0.94894 0.11469,-0.62001 0.0537,-1.42482 -0.96786,-1.75677 -2.39258,-0.77746 -3.1281,2.83174 -4.60736,2.70139 -1.28997,-0.11367 -1.31583,-2.78856 -2.48734,-2.9959 -1.14364,-0.2024 -1.65146,1.7269 -2.16843,1.99648 -0.52744,-0.82706 0.46153,-3.50657 -0.19022,-3.549 -0.97762,-0.0637 -1.87439,2.21999 -4.02609,1.62413 -1.25184,-0.71767 -0.87572,-2.59322 -2.61796,-2.99023 -1.28148,-0.29201 -1.80434,0.75663 -2.71746,0.782 -0.42013,0.0117 -0.67238,-0.43483 -0.91509,-0.62496 -0.23698,-0.18564 -0.52793,-0.4588 -0.88524,-0.50181 0.36782,0.17707 0.6629,0.35978 0.86838,0.6453 0.32531,0.42983 0.49317,0.65062 1.08051,0.64497 1.29696,-0.24619 1.6606,-1.19249 2.84911,-0.58892 0.69807,0.47055 1.49265,3.00139 2.42044,3.02696 1.98169,0.20877 3.29828,-1.26379 3.7433,-1.53603 0.007,0.73768 -0.53664,3.21701 -0.001,3.45886 1.25172,0.17974 1.76888,-2.11619 2.44189,-2.07525 0.69715,0.0424 0.77709,2.96859 2.54663,2.94067 1.53046,-0.0241 2.27715,-3.37082 4.66643,-2.58328 0.80367,0.26492 0.84797,1.08121 0.68292,1.68974 -0.0913,0.33635 -0.84618,1.07141 -1.64508,0.37905 -0.39421,-0.34162 -0.34668,-1.21751 0.22143,-1.322 0.50259,-0.0925 0.81599,0.27061 0.62861,1.18293 0.62317,-1.23748 -0.37311,-1.64984 -0.76271,-1.48462 z"
         id="path1180"
         inkscape:connector-curvature="0"
         sodipodi:nodetypes="cssssscscssscccccccsssssscsc"
         inkscape:export-xdpi="365.19934"
         inkscape:export-ydpi="365.19934" />
      <path
         sodipodi:nodetypes="ccszzzczzzszzzczzscszzczzzszzzczzzsccccc"
         inkscape:connector-curvature="0"
         id="path1182"
         d="m 150.54325,109.77415 c 2.43343,2.60027 -1.85449,1.49829 -5.36588,1.61606 -1.75541,0.0215 -3.00607,0.0801 -3.55054,0.0455 -0.61948,-0.0396 -0.50212,-0.87318 -0.0351,-0.78867 0.467,0.0844 0.53148,0.99851 0.3408,1.55702 -0.19067,0.55851 -0.43117,0.64946 -0.83658,0.66247 -0.40544,0.013 -1.31202,-0.648 -0.75152,-1.61828 -0.61309,0.98214 -1.41195,1.41879 -1.73152,1.29772 -0.3196,-0.12105 -0.53921,-0.89884 -0.27076,-1.49023 0.26843,-0.59139 1.0909,-0.4173 0.74105,0.11815 -0.34985,0.53543 -2.14877,1.26481 -2.89059,0.85152 -1.08734,-0.60579 0.13304,-4.08351 0.38206,-4.10101 0.24903,-0.0175 -0.70996,1.7546 -1.29202,2.78206 -0.58206,1.02745 -1.41806,2.09921 -1.76242,1.92562 -0.34436,-0.17359 1.00198,-1.756 1.96396,-2.73835 -0.81429,0.30222 -3.59532,2.88105 -4.27455,2.76841 -0.67925,-0.11268 -0.67108,-1.04411 0.11555,-3.13921 0.78663,-2.09511 1.50173,-1.41963 0.71218,0.18123 -1.19391,2.42073 -2.76852,3.14341 -3.68156,2.55417 0.80138,0.99052 2.65019,-0.011 3.90802,-2.39984 1.38863,-2.63646 -0.2042,-3.45494 -1.28776,-0.52389 -1.08347,2.93106 -0.32413,3.57382 0.51754,3.61541 0.84168,0.0416 2.76141,-2.40098 4.05658,-3.09689 -1.94923,0.61377 -2.82724,2.78882 -2.27209,3.07011 0.55515,0.28129 1.61034,-0.82864 2.24315,-1.93731 0.63285,-1.10867 1.74614,-3.73664 1.30896,-3.64089 -0.43719,0.0958 -2.54927,3.72471 -0.92182,4.89893 0.74986,0.54104 2.31279,0.2386 3.2662,-0.87183 0.95342,-1.11044 -0.55681,-1.27387 -1.0047,-0.5102 -0.44789,0.76366 -0.37794,2.15792 0.34922,2.05684 0.72713,-0.10113 2.21389,-1.50119 1.82536,-1.6705 -1.02166,0.42442 -0.0782,1.99203 0.68044,2.00592 0.75865,0.0139 0.98905,-0.44687 1.10865,-0.88356 0.1196,-0.43668 0.0975,-1.74554 -0.53462,-1.88026 -0.6321,-0.13475 -1.45729,1.05815 -0.0553,1.23394 0.54135,0.0679 2.13645,-0.0992 3.89186,-0.1207 3.5114,-0.11778 7.80178,0.82279 5.36836,-1.77748 -1.69309,-2.007 -0.46129,-1.80175 0.52229,-1.56362 -1.13434,-0.61288 -2.47586,-0.49533 -0.78278,1.51167 z"
         style="display:inline;fill:#fdfdfd;fill-opacity:1;stroke:none;stroke-width:0.14464188;stroke-linecap:butt;stroke-linejoin:miter;stroke-miterlimit:4;stroke-dasharray:none;stroke-opacity:1" />
    </g>
  </g>
</svg>
