<?xml version="1.0" encoding="UTF-8" standalone="no"?>
<!-- Generator: Adobe Illustrator 16.0.0, SVG Export Plug-In . SVG Version: 6.00 Build 0)  -->

<svg
   xmlns:dc="http://purl.org/dc/elements/1.1/"
   xmlns:cc="http://creativecommons.org/ns#"
   xmlns:rdf="http://www.w3.org/1999/02/22-rdf-syntax-ns#"
   xmlns:svg="http://www.w3.org/2000/svg"
   xmlns="http://www.w3.org/2000/svg"
   xmlns:sodipodi="http://sodipodi.sourceforge.net/DTD/sodipodi-0.dtd"
   xmlns:inkscape="http://www.inkscape.org/namespaces/inkscape"
   version="1.1"
   id="Capa_1"
   x="0px"
   y="0px"
   width="438.536px"
   height="438.536px"
   viewBox="0 0 438.536 438.536"
   style="enable-background:new 0 0 438.536 438.536;"
   xml:space="preserve"
   inkscape:version="0.48.4 r9939"
   sodipodi:docname="expand.svg"><metadata
   id="metadata45"><rdf:RDF><cc:Work
       rdf:about=""><dc:format>image/svg+xml</dc:format><dc:type
         rdf:resource="http://purl.org/dc/dcmitype/StillImage" /><dc:title></dc:title></cc:Work></rdf:RDF></metadata><defs
   id="defs43" /><sodipodi:namedview
   pagecolor="#ffffff"
   bordercolor="#666666"
   borderopacity="1"
   objecttolerance="10"
   gridtolerance="10"
   guidetolerance="10"
   inkscape:pageopacity="0"
   inkscape:pageshadow="2"
   inkscape:window-width="1536"
   inkscape:window-height="785"
   id="namedview41"
   showgrid="false"
   inkscape:zoom="0.53815421"
   inkscape:cx="-88.264663"
   inkscape:cy="219.26801"
   inkscape:window-x="-8"
   inkscape:window-y="-8"
   inkscape:window-maximized="1"
   inkscape:current-layer="g5" />
<g
   id="g3">
	<g
   id="g5">
		<path
   d="M414.41,24.123C398.333,8.042,378.963,0,356.315,0H82.228C59.58,0,40.21,8.042,24.126,24.123    C8.045,40.207,0.003,59.576,0.003,82.225v274.084c0,22.647,8.042,42.018,24.123,58.102c16.084,16.084,35.454,24.126,58.102,24.126    h274.084c22.648,0,42.018-8.042,58.095-24.126c16.084-16.084,24.126-35.454,24.126-58.102V82.225    C438.532,59.576,430.49,40.204,414.41,24.123z M365.449,356.309c0,2.471-0.903,4.613-2.714,6.42s-3.949,2.711-6.42,2.711H82.228    c-2.474,0-4.615-0.904-6.423-2.711s-2.712-3.949-2.712-6.42V82.221c0-2.474,0.903-4.615,2.712-6.423    c1.809-1.805,3.949-2.712,6.423-2.712h274.084c2.478,0,4.62,0.903,6.427,2.712c1.808,1.809,2.704,3.949,2.704,6.423v274.088    H365.449z"
   id="path7"
   style="fill:#00f6ff;fill-opacity:1" />
		<path
   d="M310.636,146.174H127.914c-7.616,0-13.041,3.335-16.274,9.995c-3.427,6.661-2.952,12.94,1.425,18.842l91.365,127.905    c3.612,5.141,8.563,7.707,14.843,7.707c6.285,0,11.234-2.566,14.84-7.707l91.365-127.905c4.38-5.902,4.853-12.181,1.423-18.842    C323.671,149.509,318.243,146.178,310.636,146.174z"
   id="path9"
   style="fill:#00f6ff;fill-opacity:1" />
	</g>
</g>
<g
   id="g11">
</g>
<g
   id="g13">
</g>
<g
   id="g15">
</g>
<g
   id="g17">
</g>
<g
   id="g19">
</g>
<g
   id="g21">
</g>
<g
   id="g23">
</g>
<g
   id="g25">
</g>
<g
   id="g27">
</g>
<g
   id="g29">
</g>
<g
   id="g31">
</g>
<g
   id="g33">
</g>
<g
   id="g35">
</g>
<g
   id="g37">
</g>
<g
   id="g39">
</g>
</svg>