<?xml version="1.0" encoding="UTF-8" standalone="no"?>
<!-- Generator: Adobe Illustrator 16.0.0, SVG Export Plug-In . SVG Version: 6.00 Build 0)  -->

<svg
   xmlns:dc="http://purl.org/dc/elements/1.1/"
   xmlns:cc="http://creativecommons.org/ns#"
   xmlns:rdf="http://www.w3.org/1999/02/22-rdf-syntax-ns#"
   xmlns:svg="http://www.w3.org/2000/svg"
   xmlns="http://www.w3.org/2000/svg"
   xmlns:sodipodi="http://sodipodi.sourceforge.net/DTD/sodipodi-0.dtd"
   xmlns:inkscape="http://www.inkscape.org/namespaces/inkscape"
   version="1.1"
   id="Capa_1"
   x="0px"
   y="0px"
   width="438.536px"
   height="438.536px"
   viewBox="0 0 438.536 438.536"
   style="enable-background:new 0 0 438.536 438.536;"
   xml:space="preserve"
   inkscape:version="0.48.4 r9939"
   sodipodi:docname="collapse.svg"><metadata
   id="metadata45"><rdf:RDF><cc:Work
       rdf:about=""><dc:format>image/svg+xml</dc:format><dc:type
         rdf:resource="http://purl.org/dc/dcmitype/StillImage" /><dc:title></dc:title></cc:Work></rdf:RDF></metadata><defs
   id="defs43" /><sodipodi:namedview
   pagecolor="#ffffff"
   bordercolor="#666666"
   borderopacity="1"
   objecttolerance="10"
   gridtolerance="10"
   guidetolerance="10"
   inkscape:pageopacity="0"
   inkscape:pageshadow="2"
   inkscape:window-width="1536"
   inkscape:window-height="785"
   id="namedview41"
   showgrid="false"
   inkscape:zoom="0.53815421"
   inkscape:cx="-88.264663"
   inkscape:cy="219.26801"
   inkscape:window-x="-8"
   inkscape:window-y="-8"
   inkscape:window-maximized="1"
   inkscape:current-layer="g5" />
<g
   id="g3">
	<g
   id="g5">
		<path
   d="M 24.1225,24.1265 C 8.0415,40.2035 -5e-4,59.5735 -5e-4,82.2215 l 0,274.087 c 0,22.648 8.042,42.018 24.123,58.102 16.084,16.081 35.453,24.123 58.102,24.123 l 274.084,0 c 22.647,0 42.018,-8.042 58.102,-24.123 16.084,-16.084 24.126,-35.454 24.126,-58.102 l 0,-274.084 c 0,-22.648 -8.042,-42.018 -24.126,-58.095 -16.084,-16.084 -35.454,-24.126 -58.102,-24.126 l -274.084,0 c -22.649,0.001 -42.021,8.043 -58.102,24.123 z m 332.186,48.961 c 2.471,0 4.613,0.903 6.42,2.714 1.807,1.811 2.711,3.949 2.711,6.42 l 0,274.087 c 0,2.474 -0.904,4.615 -2.711,6.423 -1.807,1.808 -3.949,2.712 -6.42,2.712 l -274.088,0 c -2.474,0 -4.615,-0.903 -6.423,-2.712 -1.805,-1.809 -2.712,-3.949 -2.712,-6.423 l 0,-274.084 c 0,-2.478 0.903,-4.62 2.712,-6.427 1.809,-1.808 3.949,-2.704 6.423,-2.704 l 274.088,0 0,-0.006 z"
   id="path7"
   style="fill:#00f6ff;fill-opacity:1"
   inkscape:connector-curvature="0" />
		<path
   d="m 137.04752,137.03452 0,182.722 c 0,7.616 3.335,13.041 9.995,16.274 6.661,3.427 12.94,2.952 18.842,-1.425 l 127.905,-91.365 c 5.141,-3.612 7.707,-8.563 7.707,-14.843 0,-6.285 -2.566,-11.234 -7.707,-14.84 l -127.905,-91.365 c -5.902,-4.38 -12.181,-4.853 -18.842,-1.423 -6.66,3.23 -9.991,8.658 -9.995,16.265 z"
   id="path9"
   style="fill:#00f6ff;fill-opacity:1"
   inkscape:connector-curvature="0" />
	</g>
</g>
<g
   id="g11">
</g>
<g
   id="g13">
</g>
<g
   id="g15">
</g>
<g
   id="g17">
</g>
<g
   id="g19">
</g>
<g
   id="g21">
</g>
<g
   id="g23">
</g>
<g
   id="g25">
</g>
<g
   id="g27">
</g>
<g
   id="g29">
</g>
<g
   id="g31">
</g>
<g
   id="g33">
</g>
<g
   id="g35">
</g>
<g
   id="g37">
</g>
<g
   id="g39">
</g>
</svg>